<mxfile host="www.draw.io" modified="2020-05-26T02:43:32.900Z" agent="5.0 (Macintosh; Intel Mac OS X 10_13_6) AppleWebKit/537.36 (KHTML, like Gecko) Chrome/80.0.3987.149 Safari/537.36" etag="e9JtZWJlF3qGCUQhYvGO" version="13.1.3" type="github">
  <diagram id="nmTY6cmdtegbvu5tnzjV" name="第 1 页">
    <mxGraphModel dx="1933" dy="702" grid="1" gridSize="10" guides="1" tooltips="1" connect="1" arrows="1" fold="1" page="1" pageScale="1" pageWidth="827" pageHeight="1169" math="0" shadow="0">
      <root>
        <mxCell id="0" />
        <mxCell id="1" parent="0" />
        <mxCell id="6dsMaFzPpHm2h0DTgemR-10" value="被调度" style="edgeStyle=orthogonalEdgeStyle;curved=1;orthogonalLoop=1;jettySize=auto;html=1;exitX=0;exitY=1;exitDx=0;exitDy=0;entryX=0.996;entryY=0.375;entryDx=0;entryDy=0;entryPerimeter=0;" edge="1" parent="1" source="6dsMaFzPpHm2h0DTgemR-1" target="6dsMaFzPpHm2h0DTgemR-5">
          <mxGeometry relative="1" as="geometry" />
        </mxCell>
        <mxCell id="6dsMaFzPpHm2h0DTgemR-1" value="R（TASK_RUNNING）" style="ellipse;whiteSpace=wrap;html=1;" vertex="1" parent="1">
          <mxGeometry x="320" y="350" width="170" height="80" as="geometry" />
        </mxCell>
        <mxCell id="6dsMaFzPpHm2h0DTgemR-3" style="edgeStyle=orthogonalEdgeStyle;orthogonalLoop=1;jettySize=auto;html=1;exitX=1;exitY=1;exitDx=0;exitDy=0;entryX=0;entryY=0;entryDx=0;entryDy=0;curved=1;fillColor=#dae8fc;strokeColor=#6c8ebf;" edge="1" parent="1" source="6dsMaFzPpHm2h0DTgemR-2" target="6dsMaFzPpHm2h0DTgemR-1">
          <mxGeometry relative="1" as="geometry" />
        </mxCell>
        <mxCell id="6dsMaFzPpHm2h0DTgemR-4" value="事件发生" style="edgeLabel;html=1;align=center;verticalAlign=middle;resizable=0;points=[];" vertex="1" connectable="0" parent="6dsMaFzPpHm2h0DTgemR-3">
          <mxGeometry x="-0.2849" y="-15" relative="1" as="geometry">
            <mxPoint as="offset" />
          </mxGeometry>
        </mxCell>
        <mxCell id="6dsMaFzPpHm2h0DTgemR-2" value="S（TASK_INTERRUPTABLE）" style="ellipse;whiteSpace=wrap;html=1;fillColor=#dae8fc;strokeColor=#6c8ebf;" vertex="1" parent="1">
          <mxGeometry x="215" y="140" width="170" height="80" as="geometry" />
        </mxCell>
        <mxCell id="6dsMaFzPpHm2h0DTgemR-8" style="edgeStyle=orthogonalEdgeStyle;curved=1;orthogonalLoop=1;jettySize=auto;html=1;exitX=1;exitY=0;exitDx=0;exitDy=0;fillColor=#dae8fc;strokeColor=#6c8ebf;" edge="1" parent="1" source="6dsMaFzPpHm2h0DTgemR-5" target="6dsMaFzPpHm2h0DTgemR-2">
          <mxGeometry relative="1" as="geometry" />
        </mxCell>
        <mxCell id="6dsMaFzPpHm2h0DTgemR-9" value="等待事件" style="edgeLabel;html=1;align=center;verticalAlign=middle;resizable=0;points=[];" vertex="1" connectable="0" parent="6dsMaFzPpHm2h0DTgemR-8">
          <mxGeometry x="-0.3084" y="-12" relative="1" as="geometry">
            <mxPoint as="offset" />
          </mxGeometry>
        </mxCell>
        <mxCell id="6dsMaFzPpHm2h0DTgemR-11" value="时间片到了" style="edgeStyle=orthogonalEdgeStyle;curved=1;orthogonalLoop=1;jettySize=auto;html=1;exitX=1;exitY=1;exitDx=0;exitDy=0;entryX=0.278;entryY=0.953;entryDx=0;entryDy=0;entryPerimeter=0;" edge="1" parent="1" source="6dsMaFzPpHm2h0DTgemR-5" target="6dsMaFzPpHm2h0DTgemR-1">
          <mxGeometry relative="1" as="geometry">
            <mxPoint x="370" y="440" as="targetPoint" />
            <Array as="points">
              <mxPoint x="310" y="498" />
              <mxPoint x="310" y="426" />
            </Array>
          </mxGeometry>
        </mxCell>
        <mxCell id="6dsMaFzPpHm2h0DTgemR-15" style="edgeStyle=orthogonalEdgeStyle;curved=1;orthogonalLoop=1;jettySize=auto;html=1;exitX=0;exitY=1;exitDx=0;exitDy=0;entryX=0;entryY=1;entryDx=0;entryDy=0;fillColor=#f5f5f5;strokeColor=#666666;" edge="1" parent="1" source="6dsMaFzPpHm2h0DTgemR-5" target="6dsMaFzPpHm2h0DTgemR-12">
          <mxGeometry relative="1" as="geometry">
            <Array as="points">
              <mxPoint x="105" y="653" />
            </Array>
          </mxGeometry>
        </mxCell>
        <mxCell id="6dsMaFzPpHm2h0DTgemR-16" value="SIGSTOP" style="edgeLabel;html=1;align=center;verticalAlign=middle;resizable=0;points=[];" vertex="1" connectable="0" parent="6dsMaFzPpHm2h0DTgemR-15">
          <mxGeometry x="-0.3916" y="38" relative="1" as="geometry">
            <mxPoint as="offset" />
          </mxGeometry>
        </mxCell>
        <mxCell id="6dsMaFzPpHm2h0DTgemR-20" value="等到资源" style="edgeStyle=orthogonalEdgeStyle;curved=1;orthogonalLoop=1;jettySize=auto;html=1;exitX=0;exitY=0;exitDx=0;exitDy=0;entryX=0.429;entryY=1.028;entryDx=0;entryDy=0;entryPerimeter=0;fillColor=#d5e8d4;strokeColor=#82b366;" edge="1" parent="1" source="6dsMaFzPpHm2h0DTgemR-5" target="6dsMaFzPpHm2h0DTgemR-19">
          <mxGeometry relative="1" as="geometry" />
        </mxCell>
        <mxCell id="6dsMaFzPpHm2h0DTgemR-26" style="edgeStyle=orthogonalEdgeStyle;curved=1;orthogonalLoop=1;jettySize=auto;html=1;exitX=0;exitY=0.5;exitDx=0;exitDy=0;entryX=0.5;entryY=0;entryDx=0;entryDy=0;fillColor=#e1d5e7;strokeColor=#9673a6;" edge="1" parent="1" source="6dsMaFzPpHm2h0DTgemR-5" target="6dsMaFzPpHm2h0DTgemR-24">
          <mxGeometry relative="1" as="geometry" />
        </mxCell>
        <mxCell id="6dsMaFzPpHm2h0DTgemR-27" value="进程退出或被中止" style="edgeLabel;html=1;align=center;verticalAlign=middle;resizable=0;points=[];" vertex="1" connectable="0" parent="6dsMaFzPpHm2h0DTgemR-26">
          <mxGeometry x="-0.2402" y="17" relative="1" as="geometry">
            <mxPoint as="offset" />
          </mxGeometry>
        </mxCell>
        <mxCell id="6dsMaFzPpHm2h0DTgemR-5" value="&lt;span style=&quot;font-size: 13.3333px&quot;&gt;R（TASK_RUNNING）&lt;/span&gt;" style="ellipse;whiteSpace=wrap;html=1;fillColor=#f8cecc;strokeColor=#b85450;" vertex="1" parent="1">
          <mxGeometry x="80" y="430" width="170" height="80" as="geometry" />
        </mxCell>
        <mxCell id="6dsMaFzPpHm2h0DTgemR-6" value="Ready" style="text;html=1;strokeColor=none;fillColor=none;align=center;verticalAlign=middle;whiteSpace=wrap;rounded=0;" vertex="1" parent="1">
          <mxGeometry x="385" y="400" width="40" height="20" as="geometry" />
        </mxCell>
        <mxCell id="6dsMaFzPpHm2h0DTgemR-7" value="Running" style="text;html=1;strokeColor=none;fillColor=none;align=center;verticalAlign=middle;whiteSpace=wrap;rounded=0;" vertex="1" parent="1">
          <mxGeometry x="130" y="480" width="40" height="20" as="geometry" />
        </mxCell>
        <mxCell id="6dsMaFzPpHm2h0DTgemR-17" style="edgeStyle=orthogonalEdgeStyle;curved=1;orthogonalLoop=1;jettySize=auto;html=1;exitX=1;exitY=0;exitDx=0;exitDy=0;entryX=0.5;entryY=1;entryDx=0;entryDy=0;fillColor=#f5f5f5;strokeColor=#666666;" edge="1" parent="1" source="6dsMaFzPpHm2h0DTgemR-12" target="6dsMaFzPpHm2h0DTgemR-1">
          <mxGeometry relative="1" as="geometry" />
        </mxCell>
        <mxCell id="6dsMaFzPpHm2h0DTgemR-18" value="SIGCONT" style="edgeLabel;html=1;align=center;verticalAlign=middle;resizable=0;points=[];" vertex="1" connectable="0" parent="6dsMaFzPpHm2h0DTgemR-17">
          <mxGeometry x="-0.1462" y="1" relative="1" as="geometry">
            <mxPoint as="offset" />
          </mxGeometry>
        </mxCell>
        <mxCell id="6dsMaFzPpHm2h0DTgemR-12" value="&lt;span style=&quot;font-size: 13.3333px&quot;&gt;T（TASK_STOPPED）&lt;/span&gt;" style="ellipse;whiteSpace=wrap;html=1;fillColor=#f5f5f5;strokeColor=#666666;fontColor=#333333;" vertex="1" parent="1">
          <mxGeometry x="270" y="585" width="170" height="80" as="geometry" />
        </mxCell>
        <mxCell id="6dsMaFzPpHm2h0DTgemR-21" style="edgeStyle=orthogonalEdgeStyle;curved=1;orthogonalLoop=1;jettySize=auto;html=1;exitX=1;exitY=1;exitDx=0;exitDy=0;entryX=0;entryY=0.5;entryDx=0;entryDy=0;fillColor=#d5e8d4;strokeColor=#82b366;" edge="1" parent="1" source="6dsMaFzPpHm2h0DTgemR-19" target="6dsMaFzPpHm2h0DTgemR-1">
          <mxGeometry relative="1" as="geometry">
            <Array as="points">
              <mxPoint x="180" y="328" />
              <mxPoint x="180" y="390" />
            </Array>
          </mxGeometry>
        </mxCell>
        <mxCell id="6dsMaFzPpHm2h0DTgemR-22" value="收到资源" style="edgeLabel;html=1;align=center;verticalAlign=middle;resizable=0;points=[];" vertex="1" connectable="0" parent="6dsMaFzPpHm2h0DTgemR-21">
          <mxGeometry x="0.0397" y="19" relative="1" as="geometry">
            <mxPoint as="offset" />
          </mxGeometry>
        </mxCell>
        <mxCell id="6dsMaFzPpHm2h0DTgemR-19" value="D（TASK_UNINTERRUPTABLE）" style="ellipse;whiteSpace=wrap;html=1;fillColor=#d5e8d4;strokeColor=#82b366;" vertex="1" parent="1">
          <mxGeometry x="-30" y="260" width="170" height="80" as="geometry" />
        </mxCell>
        <mxCell id="6dsMaFzPpHm2h0DTgemR-23" value="" style="ellipse;whiteSpace=wrap;html=1;fillColor=#e1d5e7;strokeColor=#9673a6;" vertex="1" parent="1">
          <mxGeometry x="-160" y="570" width="170" height="80" as="geometry" />
        </mxCell>
        <mxCell id="6dsMaFzPpHm2h0DTgemR-24" value="Z（TASK_ZOMBIE）" style="text;html=1;strokeColor=none;fillColor=none;align=center;verticalAlign=middle;whiteSpace=wrap;rounded=0;" vertex="1" parent="1">
          <mxGeometry x="-95" y="575" width="40" height="20" as="geometry" />
        </mxCell>
        <mxCell id="6dsMaFzPpHm2h0DTgemR-25" value="X（EXIT_DEAD）" style="text;html=1;strokeColor=none;fillColor=none;align=center;verticalAlign=middle;whiteSpace=wrap;rounded=0;" vertex="1" parent="1">
          <mxGeometry x="-110" y="615" width="40" height="20" as="geometry" />
        </mxCell>
      </root>
    </mxGraphModel>
  </diagram>
</mxfile>
